<?xml version="1.0" standalone="no"?>
<!DOCTYPE svg PUBLIC "-//W3C//DTD SVG 20010904//EN"
 "http://www.w3.org/TR/2001/REC-SVG-20010904/DTD/svg10.dtd">
<svg version="1.0" xmlns="http://www.w3.org/2000/svg"
 width="640.000000pt" height="480.000000pt" viewBox="0 0 640.000000 480.000000"
 preserveAspectRatio="xMidYMid meet">
<metadata>
Created by potrace 1.16, written by Peter Selinger 2001-2019
</metadata>
<g transform="translate(0.000000,480.000000) scale(0.100000,-0.100000)"
fill="#000000" stroke="none">
<path d="M0 2400 l0 -2400 736 2 735 3 66 125 c112 212 204 334 385 513 135
134 244 198 389 232 118 28 352 96 374 109 26 16 146 64 205 82 64 20 92 17
112 -10 21 -29 48 -103 48 -133 0 -13 8 -24 20 -28 11 -3 20 -11 20 -16 0 -6
5 -7 11 -3 7 4 9 21 5 43 -5 36 -5 37 28 39 26 2 35 -2 38 -16 3 -12 41 -37
98 -65 l92 -47 52 17 c28 9 54 20 57 25 9 13 76 13 92 0 8 -7 56 -13 108 -15
52 -1 99 -6 105 -9 16 -10 75 -12 112 -4 20 5 38 4 46 -3 8 -7 20 -10 27 -9 8
2 21 -12 29 -29 8 -18 19 -33 23 -33 5 0 6 4 2 9 -3 5 -1 12 3 15 5 3 7 -15 4
-39 -3 -30 0 -45 8 -45 6 0 9 4 5 9 -9 16 15 24 31 11 10 -9 11 -16 4 -25 -6
-7 -8 -19 -5 -27 3 -8 -5 -26 -19 -41 -13 -14 -26 -34 -28 -44 -2 -10 -8 -18
-13 -17 -19 2 -33 -31 -28 -63 6 -35 7 -34 -52 -38 -14 -1 -19 -7 -18 -23 2
-18 -2 -22 -25 -22 -15 0 -36 -8 -47 -17 -15 -12 -16 -14 -3 -10 9 3 22 0 28
-8 9 -11 5 -15 -24 -21 -20 -3 -45 -4 -56 -1 -16 4 -20 0 -20 -20 0 -13 -5
-34 -11 -45 -8 -15 -8 -22 0 -28 7 -4 2 -11 -14 -18 -36 -17 -53 -15 -59 6 -3
9 -4 5 -2 -10 l3 -26 -106 5 c-60 3 -118 11 -133 19 -24 12 -33 12 -75 -5 -31
-13 -40 -20 -26 -20 12 -1 25 4 28 9 8 12 45 13 64 1 10 -7 4 -9 -20 -8 -22 1
-33 -2 -32 -10 2 -7 -11 -20 -27 -28 -30 -15 -40 -35 -19 -35 6 0 9 -6 6 -14
-5 -13 2 -44 24 -103 5 -13 15 -23 24 -23 8 0 15 -4 15 -10 0 -7 145 -10 414
-10 l414 0 6 33 c3 19 23 53 43 77 21 24 38 50 39 57 4 26 51 60 176 128 68
38 125 72 126 76 2 5 10 9 18 9 8 0 14 5 14 10 0 6 9 10 19 10 11 0 37 20 59
46 41 46 54 85 54 162 0 20 6 49 14 64 8 15 14 31 13 35 -4 21 27 73 43 73 21
0 25 -2 303 -120 22 -9 81 -34 130 -55 50 -21 118 -57 151 -81 67 -47 174
-152 174 -170 0 -6 9 -22 19 -36 11 -13 23 -37 26 -51 4 -15 11 -27 16 -27 5
0 5 -7 2 -17 -4 -10 -2 -14 4 -10 6 4 13 -5 16 -21 3 -15 1 -29 -5 -31 -5 -2
0 -14 13 -27 13 -14 20 -31 16 -43 -3 -12 1 -22 10 -25 11 -4 13 -14 8 -36
l-7 -30 336 0 336 0 0 1360 0 1361 -21 -12 c-12 -6 -32 -9 -45 -6 -13 2 -21 0
-18 -4 3 -5 -5 -9 -16 -9 -20 0 -22 -4 -17 -47 8 -73 15 -125 22 -160 3 -17 1
-34 -4 -38 -6 -3 -52 -7 -103 -9 -51 -2 -125 -7 -165 -11 -39 -4 -80 -4 -90 0
-33 14 -51 15 -62 1 -18 -22 -60 -8 -67 23 -3 14 -9 35 -14 46 -5 11 -10 29
-12 40 -2 11 -11 21 -21 23 -12 3 -17 -3 -17 -22 0 -14 -4 -26 -10 -26 -5 0
-10 -7 -10 -15 0 -8 -4 -15 -8 -15 -5 0 -7 -13 -4 -29 6 -46 -29 -75 -82 -67
-24 4 -36 3 -28 -2 19 -13 -72 -28 -128 -22 l-45 5 -19 79 c-15 62 -16 83 -7
98 6 10 7 18 2 18 -5 0 -13 9 -16 20 -7 21 26 59 52 60 6 0 20 11 30 25 15 22
32 28 103 39 47 8 99 12 116 9 24 -4 38 1 58 20 15 14 34 23 42 20 8 -3 14 1
14 8 1 26 29 -36 30 -63 0 -32 16 -36 58 -14 16 8 60 18 100 22 40 3 75 11 78
15 3 5 14 9 25 9 15 0 19 7 19 33 0 19 -3 37 -7 41 -5 4 -8 15 -9 24 -1 10 -2
29 -3 45 -1 22 -6 27 -26 27 -14 0 -25 5 -25 10 0 6 13 10 29 10 20 0 32 6 36
19 6 20 -12 71 -30 83 -6 5 -6 11 3 20 6 6 12 28 12 47 0 29 -8 43 -41 74 -30
28 -38 43 -34 58 10 31 -12 49 -61 49 -40 0 -44 2 -44 24 0 22 5 25 58 31 31
4 77 12 102 17 65 13 128 25 180 34 25 4 50 10 56 15 5 4 20 6 31 3 12 -3 29
-1 39 4 13 7 -5 12 -72 17 -82 6 -158 23 -111 24 9 1 17 6 17 12 0 6 -9 8 -22
4 -23 -7 -23 -7 -3 12 24 24 109 57 150 59 17 1 36 2 43 3 9 1 12 98 12 450
l0 449 -41 -4 c-40 -4 -84 -26 -73 -37 3 -3 -4 -3 -17 0 -17 5 -20 3 -14 -8 8
-12 6 -12 -8 0 -15 12 -17 12 -11 -4 6 -15 3 -16 -17 -10 -13 4 -21 4 -17 0
14 -14 -73 -57 -115 -58 -16 0 -23 -3 -16 -8 8 -4 4 -9 -10 -14 -11 -3 -26 -3
-32 1 -7 4 -9 3 -6 -3 4 -5 -31 -22 -81 -37 -48 -16 -97 -32 -109 -37 -38 -15
-156 -40 -161 -34 -3 3 1 5 8 5 8 0 32 9 54 19 50 23 252 101 262 101 4 0 32
12 63 26 31 14 71 32 89 40 17 8 47 21 66 29 19 8 48 18 65 21 17 4 31 9 31
13 0 11 60 33 75 27 13 -5 15 20 15 169 l0 175 -1580 0 c-1047 0 -1580 -3
-1580 -10 0 -5 -7 -10 -15 -10 -19 0 -19 -10 0 -37 13 -19 13 -21 -5 -26 -13
-3 -18 -1 -13 6 4 7 -1 6 -11 -2 -14 -12 -19 -12 -25 -2 -5 7 -18 10 -32 7
-13 -3 -55 -8 -93 -11 -38 -3 -86 -10 -105 -16 -20 -7 -43 -14 -51 -16 -12 -3
-11 -7 5 -15 30 -16 31 -18 15 -28 -11 -7 -6 -10 18 -10 17 0 32 -4 32 -10 0
-5 -12 -10 -27 -10 -16 0 -37 -7 -47 -15 -20 -15 -20 -15 0 -30 10 -8 15 -15
9 -15 -5 0 1 -7 14 -16 18 -13 36 -15 77 -10 34 4 54 2 54 -4 0 -5 -22 -10
-50 -10 -37 0 -50 -4 -50 -14 0 -8 5 -18 10 -21 6 -3 10 -13 10 -21 0 -12 -7
-14 -30 -9 -17 4 -30 2 -30 -3 0 -5 -14 -12 -32 -16 -24 -5 -29 -9 -20 -18 9
-9 15 -9 24 0 20 20 26 14 25 -23 -1 -19 -5 -35 -9 -35 -4 0 -8 5 -8 10 0 6
-18 10 -40 10 -33 0 -40 -3 -40 -20 0 -16 7 -20 30 -20 28 0 30 -2 20 -20 -10
-18 -30 -27 -86 -39 -4 0 1 -12 10 -26 20 -30 20 -35 1 -35 -21 0 -48 -46 -47
-79 0 -24 -3 -28 -26 -26 -42 3 -44 4 -39 20 9 23 -5 25 -69 10 -59 -14 -66
-12 -77 20 -2 6 -14 -1 -26 -15 -12 -14 -20 -18 -19 -10 2 8 -2 14 -9 15 -25
1 -25 15 0 15 14 0 41 6 59 14 18 8 42 17 53 21 15 5 16 8 6 14 -7 5 -25 4
-40 -2 -39 -14 -141 0 -141 20 0 12 -3 13 -14 4 -10 -9 -16 -8 -26 4 -14 16
-55 21 -45 5 8 -12 -5 -13 -24 -1 -7 5 -11 13 -8 17 3 5 -14 10 -36 11 -111 6
-147 15 -108 28 12 3 21 11 21 16 0 5 9 9 21 9 15 0 19 -5 15 -15 -6 -16 8
-18 39 -5 l20 8 -20 7 c-49 17 -90 45 -90 62 0 26 -21 35 -66 28 -48 -8 -51 6
-4 31 41 22 30 34 -32 34 -44 0 -52 -7 -31 -28 23 -23 -1 -24 -31 -1 -37 27
-38 32 -10 60 20 20 20 23 5 31 -22 12 -20 45 4 60 11 7 20 15 20 19 0 10 -69
9 -75 -1 -3 -6 -25 -9 -48 -8 -34 1 -36 2 -11 5 27 4 30 7 26 34 -4 24 -9 29
-26 27 -13 -2 -22 -11 -24 -26 l-3 -22 -29 20 c-15 11 -38 20 -49 20 -12 0
-21 4 -21 9 0 15 23 19 41 8 22 -14 50 -2 56 24 4 14 12 19 24 16 10 -3 17 0
16 6 -3 16 32 21 57 8 33 -18 155 -8 191 15 42 26 57 42 46 48 -4 3 -11 2 -15
-2 -10 -9 -76 -9 -76 0 0 12 -242 8 -257 -4 -10 -8 -17 -8 -25 0 -9 9 -242 12
-905 12 l-893 0 0 -2400z m3205 1800 c3 -5 11 -81 17 -167 8 -115 7 -158 -1
-161 -6 -2 -11 -10 -11 -17 0 -8 -9 -19 -21 -25 -22 -13 -54 -6 -44 9 3 5 1
12 -4 15 -19 12 -42 109 -36 150 19 131 29 182 38 194 11 14 53 16 62 2z
m2100 -159 c-6 -6 -68 -22 -140 -36 -71 -14 -138 -30 -147 -35 -10 -6 -29 -10
-42 -10 -14 0 -51 -7 -83 -15 -130 -35 -362 -79 -415 -80 -32 0 -58 -3 -58 -6
0 -4 -11 -6 -24 -5 -33 2 -23 12 20 20 19 4 43 10 51 13 12 5 14 3 8 -8 -7
-11 -3 -10 16 2 13 9 45 20 69 24 25 4 81 16 125 27 44 10 116 27 160 37 44
10 123 28 175 41 52 12 129 25 170 30 113 11 125 11 115 1z m-1958 -468 c-10
-9 -131 -26 -447 -63 -52 -6 -113 -14 -135 -17 -37 -6 -39 -5 -26 11 8 10 23
15 33 13 10 -3 42 1 70 8 62 16 188 33 308 41 47 4 87 8 89 10 8 7 115 4 108
-3z m107 -87 c9 -19 35 -49 59 -67 23 -18 37 -27 30 -20 -6 8 -9 19 -7 26 3 7
1 16 -5 20 -15 8 -14 45 0 45 25 0 79 -42 79 -61 0 -11 7 -22 15 -25 18 -7 20
-30 2 -37 -15 -6 -16 -45 -2 -68 12 -19 94 -59 123 -59 11 0 24 -5 28 -11 4
-7 24 -9 55 -6 54 7 56 5 34 -17 -14 -14 -13 -16 8 -21 14 -4 29 -17 35 -29
16 -36 67 -45 189 -35 60 5 142 11 183 14 41 4 108 10 148 15 40 6 119 10 175
9 l102 -1 -48 -13 c-27 -7 -70 -16 -95 -19 -293 -36 -508 -69 -519 -78 -11 -9
-5 -19 29 -53 47 -47 52 -48 170 -24 39 8 66 8 86 1 21 -7 44 -6 83 4 69 18
150 20 175 4 37 -23 2 -109 -44 -111 -117 -4 -191 -11 -212 -21 -41 -20 -51
-30 -42 -42 5 -6 12 -24 15 -41 4 -16 4 -24 1 -17 -10 22 -26 13 -22 -12 3
-14 2 -30 -2 -37 -8 -13 -11 -13 -175 -3 l-110 6 25 -27 c13 -14 39 -35 57
-46 37 -23 43 -55 17 -94 -10 -15 -12 -25 -5 -25 6 0 11 -6 11 -14 0 -15 -54
-21 -251 -29 -59 -3 -136 -20 -139 -31 -7 -24 -8 -74 -1 -85 10 -15 93 -33
101 -22 11 17 41 20 46 6 4 -10 20 -15 44 -15 21 0 43 -7 50 -15 6 -8 15 -13
18 -12 8 2 72 -59 72 -68 0 -3 -10 -5 -23 -5 -24 0 -67 -25 -67 -40 0 -10 68
-34 93 -32 9 0 17 -6 17 -14 0 -8 8 -27 18 -41 12 -19 13 -25 3 -18 -11 6 -13
4 -8 -10 4 -9 2 -24 -4 -31 -6 -8 -8 -25 -5 -39 6 -24 4 -26 -21 -23 -24 3
-28 -1 -28 -22 0 -30 28 -60 55 -60 14 0 20 -7 20 -21 0 -11 -4 -18 -9 -14
-10 6 -41 -21 -41 -35 0 -5 9 -11 19 -15 21 -6 30 -38 23 -85 -9 -60 -52 -45
-77 28 -10 28 -10 39 -2 44 9 5 7 11 -4 20 -14 12 -31 56 -43 118 -11 55 -28
65 -106 63 l-71 -2 6 33 c5 23 2 38 -9 49 -9 8 -16 27 -16 42 0 23 -4 26 -27
24 -34 -3 -75 9 -68 21 3 5 -2 15 -11 24 -12 12 -20 14 -36 5 l-20 -11 21 -14
c26 -19 27 -34 3 -34 -10 0 -32 -13 -48 -30 -34 -34 -64 -39 -71 -10 -6 21
-50 50 -76 50 -7 0 -24 -11 -37 -25 l-23 -24 26 -10 c14 -5 31 -19 39 -30 12
-17 30 -21 109 -26 52 -4 103 -10 114 -14 11 -5 33 -12 49 -17 20 -6 33 -19
40 -40 6 -17 16 -29 23 -27 16 6 93 -77 93 -99 0 -10 -3 -18 -7 -19 -5 0 -23
-2 -41 -4 -19 -1 -39 3 -47 11 -7 8 -24 14 -36 14 -13 0 -33 9 -45 21 -18 17
-35 21 -81 21 -113 -1 -167 -11 -184 -33 -11 -15 -22 -19 -37 -15 -11 4 -23 2
-27 -4 -3 -5 -13 -10 -21 -10 -10 0 -14 13 -14 46 0 39 -2 45 -14 35 -11 -10
-16 -8 -21 9 -10 32 -50 43 -86 24 -30 -15 -30 -15 -28 -97 1 -45 5 -87 10
-93 13 -16 -1 -53 -17 -47 -8 3 -14 -1 -14 -11 0 -25 -39 -35 -77 -20 -20 9
-34 10 -38 4 -9 -14 -25 -12 -25 3 0 7 5 18 11 24 17 17 18 82 2 76 -15 -6
-18 23 -3 32 16 10 12 21 -15 46 -30 29 -30 32 -2 62 19 21 22 35 22 103 0 76
-1 79 -27 92 -22 10 -31 10 -48 0 -11 -7 -20 -20 -20 -28 -1 -25 -37 -61 -54
-54 -25 9 -21 76 5 100 12 10 28 34 36 52 8 21 20 32 33 32 25 0 25 13 1 67
-18 39 -25 70 -22 101 1 17 31 15 31 -3 0 -8 4 -15 9 -15 20 0 41 13 41 25 0
7 6 15 13 18 8 3 1 16 -20 38 -31 33 -32 35 -21 84 5 28 19 59 29 71 11 12 17
28 13 37 -5 14 -12 13 -65 -6 -79 -28 -99 -48 -99 -97 0 -22 -4 -40 -10 -40
-5 0 -10 16 -10 35 0 23 -8 43 -22 58 -27 26 -81 28 -308 10 -74 -5 -141 -8
-147 -5 -21 7 -15 39 10 46 12 3 99 15 192 27 94 12 180 25 193 30 31 12 51
57 31 70 -19 12 -44 11 -273 -10 -207 -19 -216 -22 -216 -68 0 -18 -6 -23 -25
-23 -14 0 -25 -4 -25 -9 0 -6 -10 -21 -23 -35 -22 -23 -25 -24 -40 -9 -8 9
-31 17 -49 18 -46 3 -121 26 -130 39 -8 13 -7 76 1 76 3 0 38 5 76 11 39 6 84
12 100 15 17 2 53 8 80 14 52 10 154 24 310 41 226 25 300 39 352 66 53 28 66
49 38 59 -8 3 -140 -5 -292 -19 -306 -28 -543 -47 -589 -47 -20 0 -25 3 -15 9
11 7 10 10 -5 14 -10 3 -2 3 19 0 20 -3 43 -1 50 5 13 10 110 27 217 37 36 3
106 12 155 20 50 8 179 24 288 35 213 23 271 41 288 88 12 31 -16 41 -90 31
-31 -4 -121 -10 -201 -13 -126 -5 -142 -4 -120 8 14 7 59 16 100 20 108 10
162 16 188 22 13 2 70 11 127 18 61 8 110 20 119 28 8 8 35 21 60 28 38 10 50
20 71 58 14 25 24 53 22 61 -5 22 33 124 49 134 8 4 14 17 14 27 0 31 16 24
34 -14z m1441 -496 c3 -5 19 -10 36 -10 19 0 29 -5 29 -15 0 -8 6 -15 13 -15
6 0 17 -15 23 -34 8 -25 7 -33 -1 -30 -7 3 -11 -11 -10 -41 1 -30 -3 -49 -13
-58 -13 -9 -14 -9 -8 1 4 6 2 12 -3 12 -6 0 -11 -5 -11 -11 0 -6 -9 -8 -21 -4
-27 9 -72 -3 -63 -16 4 -8 -7 -9 -37 -4 -43 7 -63 21 -53 37 3 5 -2 11 -10 14
-11 4 -13 14 -9 35 5 25 2 29 -16 29 -23 0 -29 25 -8 34 8 4 9 8 1 11 -9 5 -9
12 0 30 7 17 24 28 51 34 55 12 103 13 110 1z m-368 -315 c-4 -8 -2 -17 3 -20
6 -4 10 -16 10 -29 0 -12 6 -28 12 -34 8 -8 9 -15 3 -20 -18 -12 -16 -40 2
-45 10 -3 35 -8 55 -12 30 -5 41 -13 54 -42 14 -29 15 -39 5 -55 -10 -17 -10
-22 0 -28 10 -7 10 -14 0 -38 -7 -17 -11 -40 -9 -53 2 -18 -5 -27 -32 -41 -37
-18 -145 -24 -154 -9 -10 16 -19 187 -12 225 4 21 13 36 21 36 20 0 14 42 -10
63 -16 15 -17 18 -3 13 11 -3 15 -1 12 8 -3 8 -13 12 -23 9 -11 -3 -21 2 -25
13 -10 25 -1 28 33 11 17 -9 31 -12 31 -7 0 5 -6 10 -12 13 -9 3 -5 13 11 31
28 29 36 33 28 11z m593 -38 c0 -7 10 -17 23 -22 17 -8 22 -19 24 -47 0 -21 7
-62 14 -90 7 -29 12 -59 11 -65 -2 -7 2 -13 7 -13 7 0 7 -8 1 -25 -5 -14 -7
-32 -4 -40 8 -19 -43 -21 -66 -2 -21 17 -40 58 -38 82 1 11 -2 67 -7 124 -7
95 -6 103 9 98 10 -4 15 -3 11 3 -3 6 -1 10 4 10 6 0 11 -6 11 -13z m-2927
-218 c26 0 47 -4 47 -9 0 -6 -12 -10 -26 -10 l-26 0 32 -27 c20 -16 30 -32 27
-44 -3 -12 0 -16 10 -12 20 8 53 -26 53 -55 l0 -25 88 7 c48 3 166 9 263 13
156 5 176 4 182 -10 3 -9 2 -19 -2 -22 -6 -3 -422 -24 -507 -25 -6 0 -16 -31
-23 -70 -13 -70 -13 -70 -53 -80 -68 -19 -206 -21 -223 -3 -26 26 -37 54 -30
80 4 17 2 22 -5 18 -8 -5 -10 7 -4 41 8 62 7 60 58 83 33 14 45 25 49 47 3 16
1 32 -5 35 -6 4 -7 12 -4 18 4 6 2 11 -3 11 -6 0 -11 5 -11 10 0 6 5 9 11 8
19 -5 21 20 2 25 -10 2 -2 2 17 0 19 -3 56 -5 83 -4z m735 -437 c6 -9 12 -26
12 -40 0 -14 4 -21 11 -16 7 4 7 -1 -1 -16 -6 -12 -9 -24 -6 -28 3 -3 6 0 6 7
0 7 5 9 10 6 8 -5 8 -11 1 -19 -6 -7 -8 -16 -4 -19 3 -4 0 -14 -8 -24 -8 -9
-9 -14 -3 -10 14 8 18 -82 5 -116 -7 -18 -7 -27 2 -31 7 -2 2 -5 -9 -5 -12 -1
-28 9 -36 21 -16 24 -34 18 -48 -16 -7 -17 -9 -15 -9 17 -1 21 4 47 10 58 7
13 7 24 1 32 -6 7 -13 29 -17 50 -4 20 -11 37 -15 37 -4 0 -10 9 -13 20 -3 11
-1 18 4 14 5 -3 9 13 9 35 0 31 4 41 20 46 11 4 18 10 15 14 -9 15 50 -1 63
-17z m394 -281 c65 -28 108 -35 108 -19 0 17 56 42 71 32 7 -4 31 -6 55 -6 26
1 48 -4 58 -13 8 -8 23 -15 33 -15 16 -1 15 -3 -4 -19 -40 -34 -22 -58 45 -63
47 -3 54 -17 17 -35 -14 -6 -25 -7 -25 -2 0 4 -21 -3 -46 -16 -37 -20 -62 -25
-117 -25 -61 0 -68 -2 -57 -15 7 -8 18 -15 24 -15 6 0 28 -9 49 -20 20 -11 39
-20 41 -20 2 0 21 14 42 31 34 27 45 30 94 28 31 -1 62 1 69 6 8 4 16 2 21 -4
8 -14 -27 -54 -77 -89 -34 -24 -35 -45 -1 -94 25 -36 23 -42 -16 -72 -28 -21
-46 -26 -90 -26 -36 0 -58 -5 -63 -14 -4 -7 -23 -21 -41 -30 -26 -14 -36 -14
-55 -4 -12 6 -32 11 -44 9 -12 -1 -40 7 -63 18 -22 11 -54 22 -70 26 -16 3
-34 13 -41 21 -6 8 -19 14 -28 15 -10 0 -11 2 -3 6 18 7 15 41 -5 39 -11 -1
-19 11 -26 34 -5 19 -15 39 -23 43 -17 10 -18 34 -2 39 6 2 12 22 12 45 1 22
6 46 13 54 14 17 6 59 -10 59 -6 0 -2 6 8 14 11 8 22 13 26 11 3 -2 14 15 24
38 20 47 34 67 45 67 5 0 28 -8 52 -19z m-1159 -58 l29 -9 -38 -18 c-23 -10
-72 -20 -123 -23 -81 -5 -88 -4 -115 20 -49 42 -29 51 103 44 64 -3 129 -10
144 -14z"/>
</g>
</svg>
